<?xml version="1.0" encoding="utf-8" standalone="no"?>
<!DOCTYPE svg PUBLIC "-//W3C//DTD SVG 1.1//EN"
  "http://www.w3.org/Graphics/SVG/1.1/DTD/svg11.dtd">
<svg xmlns:xlink="http://www.w3.org/1999/xlink" width="1141.056pt" height="471.168pt" viewBox="0 0 1141.056 471.168" xmlns="http://www.w3.org/2000/svg" version="1.1">
 <metadata>
  <rdf:RDF xmlns:dc="http://purl.org/dc/elements/1.1/" xmlns:cc="http://creativecommons.org/ns#" xmlns:rdf="http://www.w3.org/1999/02/22-rdf-syntax-ns#">
   <cc:Work>
    <dc:type rdf:resource="http://purl.org/dc/dcmitype/StillImage"/>
    <dc:date>2022-11-18T01:25:36.811437</dc:date>
    <dc:format>image/svg+xml</dc:format>
    <dc:creator>
     <cc:Agent>
      <dc:title>Matplotlib v3.6.2, https://matplotlib.org/</dc:title>
     </cc:Agent>
    </dc:creator>
   </cc:Work>
  </rdf:RDF>
 </metadata>
 <defs>
  <style type="text/css">*{stroke-linejoin: round; stroke-linecap: butt}</style>
 </defs>
 <g id="figure_1">
  <g id="patch_1">
   <path d="M 0 471.168 
L 1141.056 471.168 
L 1141.056 0 
L 0 0 
z
" style="fill: #ffffff"/>
  </g>
  <g id="axes_1">
   <g id="patch_2">
    <path d="M 104.32512 417.320229 
L 548.229606 417.320229 
L 548.229606 45.770606 
L 104.32512 45.770606 
z
" style="fill: #ffffff"/>
   </g>
   <g id="matplotlib.axis_1">
    <g id="xtick_1">
     <g id="line2d_1">
      <path d="M 124.502596 417.320229 
L 124.502596 45.770606 
" clip-path="url(#paac7f7569c)" style="fill: none; stroke: #b0b0b0; stroke-width: 0.8; stroke-linecap: square"/>
     </g>
     <g id="line2d_2">
      <defs>
       <path id="m1b2b2bb2b5" d="M 0 0 
L 0 3.5 
" style="stroke: #000000; stroke-width: 0.8"/>
      </defs>
      <g>
       <use xlink:href="#m1b2b2bb2b5" x="124.502596" y="417.320229" style="stroke: #000000; stroke-width: 0.8"/>
      </g>
     </g>
     <g id="text_1">
      <!-- 0.0 -->
      <g transform="translate(116.551034 431.918666) scale(0.1 -0.1)">
       <defs>
        <path id="DejaVuSans-30" d="M 2034 4250 
Q 1547 4250 1301 3770 
Q 1056 3291 1056 2328 
Q 1056 1369 1301 889 
Q 1547 409 2034 409 
Q 2525 409 2770 889 
Q 3016 1369 3016 2328 
Q 3016 3291 2770 3770 
Q 2525 4250 2034 4250 
z
M 2034 4750 
Q 2819 4750 3233 4129 
Q 3647 3509 3647 2328 
Q 3647 1150 3233 529 
Q 2819 -91 2034 -91 
Q 1250 -91 836 529 
Q 422 1150 422 2328 
Q 422 3509 836 4129 
Q 1250 4750 2034 4750 
z
" transform="scale(0.015625)"/>
        <path id="DejaVuSans-2e" d="M 684 794 
L 1344 794 
L 1344 0 
L 684 0 
L 684 794 
z
" transform="scale(0.015625)"/>
       </defs>
       <use xlink:href="#DejaVuSans-30"/>
       <use xlink:href="#DejaVuSans-2e" x="63.623047"/>
       <use xlink:href="#DejaVuSans-30" x="95.410156"/>
      </g>
     </g>
    </g>
    <g id="xtick_2">
     <g id="line2d_3">
      <path d="M 214.186055 417.320229 
L 214.186055 45.770606 
" clip-path="url(#paac7f7569c)" style="fill: none; stroke: #b0b0b0; stroke-width: 0.8; stroke-linecap: square"/>
     </g>
     <g id="line2d_4">
      <g>
       <use xlink:href="#m1b2b2bb2b5" x="214.186055" y="417.320229" style="stroke: #000000; stroke-width: 0.8"/>
      </g>
     </g>
     <g id="text_2">
      <!-- 0.2 -->
      <g transform="translate(206.234493 431.918666) scale(0.1 -0.1)">
       <defs>
        <path id="DejaVuSans-32" d="M 1228 531 
L 3431 531 
L 3431 0 
L 469 0 
L 469 531 
Q 828 903 1448 1529 
Q 2069 2156 2228 2338 
Q 2531 2678 2651 2914 
Q 2772 3150 2772 3378 
Q 2772 3750 2511 3984 
Q 2250 4219 1831 4219 
Q 1534 4219 1204 4116 
Q 875 4013 500 3803 
L 500 4441 
Q 881 4594 1212 4672 
Q 1544 4750 1819 4750 
Q 2544 4750 2975 4387 
Q 3406 4025 3406 3419 
Q 3406 3131 3298 2873 
Q 3191 2616 2906 2266 
Q 2828 2175 2409 1742 
Q 1991 1309 1228 531 
z
" transform="scale(0.015625)"/>
       </defs>
       <use xlink:href="#DejaVuSans-30"/>
       <use xlink:href="#DejaVuSans-2e" x="63.623047"/>
       <use xlink:href="#DejaVuSans-32" x="95.410156"/>
      </g>
     </g>
    </g>
    <g id="xtick_3">
     <g id="line2d_5">
      <path d="M 303.869514 417.320229 
L 303.869514 45.770606 
" clip-path="url(#paac7f7569c)" style="fill: none; stroke: #b0b0b0; stroke-width: 0.8; stroke-linecap: square"/>
     </g>
     <g id="line2d_6">
      <g>
       <use xlink:href="#m1b2b2bb2b5" x="303.869514" y="417.320229" style="stroke: #000000; stroke-width: 0.8"/>
      </g>
     </g>
     <g id="text_3">
      <!-- 0.4 -->
      <g transform="translate(295.917952 431.918666) scale(0.1 -0.1)">
       <defs>
        <path id="DejaVuSans-34" d="M 2419 4116 
L 825 1625 
L 2419 1625 
L 2419 4116 
z
M 2253 4666 
L 3047 4666 
L 3047 1625 
L 3713 1625 
L 3713 1100 
L 3047 1100 
L 3047 0 
L 2419 0 
L 2419 1100 
L 313 1100 
L 313 1709 
L 2253 4666 
z
" transform="scale(0.015625)"/>
       </defs>
       <use xlink:href="#DejaVuSans-30"/>
       <use xlink:href="#DejaVuSans-2e" x="63.623047"/>
       <use xlink:href="#DejaVuSans-34" x="95.410156"/>
      </g>
     </g>
    </g>
    <g id="xtick_4">
     <g id="line2d_7">
      <path d="M 393.552973 417.320229 
L 393.552973 45.770606 
" clip-path="url(#paac7f7569c)" style="fill: none; stroke: #b0b0b0; stroke-width: 0.8; stroke-linecap: square"/>
     </g>
     <g id="line2d_8">
      <g>
       <use xlink:href="#m1b2b2bb2b5" x="393.552973" y="417.320229" style="stroke: #000000; stroke-width: 0.8"/>
      </g>
     </g>
     <g id="text_4">
      <!-- 0.6 -->
      <g transform="translate(385.601411 431.918666) scale(0.1 -0.1)">
       <defs>
        <path id="DejaVuSans-36" d="M 2113 2584 
Q 1688 2584 1439 2293 
Q 1191 2003 1191 1497 
Q 1191 994 1439 701 
Q 1688 409 2113 409 
Q 2538 409 2786 701 
Q 3034 994 3034 1497 
Q 3034 2003 2786 2293 
Q 2538 2584 2113 2584 
z
M 3366 4563 
L 3366 3988 
Q 3128 4100 2886 4159 
Q 2644 4219 2406 4219 
Q 1781 4219 1451 3797 
Q 1122 3375 1075 2522 
Q 1259 2794 1537 2939 
Q 1816 3084 2150 3084 
Q 2853 3084 3261 2657 
Q 3669 2231 3669 1497 
Q 3669 778 3244 343 
Q 2819 -91 2113 -91 
Q 1303 -91 875 529 
Q 447 1150 447 2328 
Q 447 3434 972 4092 
Q 1497 4750 2381 4750 
Q 2619 4750 2861 4703 
Q 3103 4656 3366 4563 
z
" transform="scale(0.015625)"/>
       </defs>
       <use xlink:href="#DejaVuSans-30"/>
       <use xlink:href="#DejaVuSans-2e" x="63.623047"/>
       <use xlink:href="#DejaVuSans-36" x="95.410156"/>
      </g>
     </g>
    </g>
    <g id="xtick_5">
     <g id="line2d_9">
      <path d="M 483.236433 417.320229 
L 483.236433 45.770606 
" clip-path="url(#paac7f7569c)" style="fill: none; stroke: #b0b0b0; stroke-width: 0.8; stroke-linecap: square"/>
     </g>
     <g id="line2d_10">
      <g>
       <use xlink:href="#m1b2b2bb2b5" x="483.236433" y="417.320229" style="stroke: #000000; stroke-width: 0.8"/>
      </g>
     </g>
     <g id="text_5">
      <!-- 0.8 -->
      <g transform="translate(475.28487 431.918666) scale(0.1 -0.1)">
       <defs>
        <path id="DejaVuSans-38" d="M 2034 2216 
Q 1584 2216 1326 1975 
Q 1069 1734 1069 1313 
Q 1069 891 1326 650 
Q 1584 409 2034 409 
Q 2484 409 2743 651 
Q 3003 894 3003 1313 
Q 3003 1734 2745 1975 
Q 2488 2216 2034 2216 
z
M 1403 2484 
Q 997 2584 770 2862 
Q 544 3141 544 3541 
Q 544 4100 942 4425 
Q 1341 4750 2034 4750 
Q 2731 4750 3128 4425 
Q 3525 4100 3525 3541 
Q 3525 3141 3298 2862 
Q 3072 2584 2669 2484 
Q 3125 2378 3379 2068 
Q 3634 1759 3634 1313 
Q 3634 634 3220 271 
Q 2806 -91 2034 -91 
Q 1263 -91 848 271 
Q 434 634 434 1313 
Q 434 1759 690 2068 
Q 947 2378 1403 2484 
z
M 1172 3481 
Q 1172 3119 1398 2916 
Q 1625 2713 2034 2713 
Q 2441 2713 2670 2916 
Q 2900 3119 2900 3481 
Q 2900 3844 2670 4047 
Q 2441 4250 2034 4250 
Q 1625 4250 1398 4047 
Q 1172 3844 1172 3481 
z
" transform="scale(0.015625)"/>
       </defs>
       <use xlink:href="#DejaVuSans-30"/>
       <use xlink:href="#DejaVuSans-2e" x="63.623047"/>
       <use xlink:href="#DejaVuSans-38" x="95.410156"/>
      </g>
     </g>
    </g>
    <g id="text_6">
     <!-- Säde, r ($R_{WD}$) -->
     <g transform="translate(293.277363 445.596791) scale(0.1 -0.1)">
      <defs>
       <path id="DejaVuSans-53" d="M 3425 4513 
L 3425 3897 
Q 3066 4069 2747 4153 
Q 2428 4238 2131 4238 
Q 1616 4238 1336 4038 
Q 1056 3838 1056 3469 
Q 1056 3159 1242 3001 
Q 1428 2844 1947 2747 
L 2328 2669 
Q 3034 2534 3370 2195 
Q 3706 1856 3706 1288 
Q 3706 609 3251 259 
Q 2797 -91 1919 -91 
Q 1588 -91 1214 -16 
Q 841 59 441 206 
L 441 856 
Q 825 641 1194 531 
Q 1563 422 1919 422 
Q 2459 422 2753 634 
Q 3047 847 3047 1241 
Q 3047 1584 2836 1778 
Q 2625 1972 2144 2069 
L 1759 2144 
Q 1053 2284 737 2584 
Q 422 2884 422 3419 
Q 422 4038 858 4394 
Q 1294 4750 2059 4750 
Q 2388 4750 2728 4690 
Q 3069 4631 3425 4513 
z
" transform="scale(0.015625)"/>
       <path id="DejaVuSans-e4" d="M 2194 1759 
Q 1497 1759 1228 1600 
Q 959 1441 959 1056 
Q 959 750 1161 570 
Q 1363 391 1709 391 
Q 2188 391 2477 730 
Q 2766 1069 2766 1631 
L 2766 1759 
L 2194 1759 
z
M 3341 1997 
L 3341 0 
L 2766 0 
L 2766 531 
Q 2569 213 2275 61 
Q 1981 -91 1556 -91 
Q 1019 -91 701 211 
Q 384 513 384 1019 
Q 384 1609 779 1909 
Q 1175 2209 1959 2209 
L 2766 2209 
L 2766 2266 
Q 2766 2663 2505 2880 
Q 2244 3097 1772 3097 
Q 1472 3097 1187 3025 
Q 903 2953 641 2809 
L 641 3341 
Q 956 3463 1253 3523 
Q 1550 3584 1831 3584 
Q 2591 3584 2966 3190 
Q 3341 2797 3341 1997 
z
M 2150 4850 
L 2784 4850 
L 2784 4219 
L 2150 4219 
L 2150 4850 
z
M 928 4850 
L 1562 4850 
L 1562 4219 
L 928 4219 
L 928 4850 
z
" transform="scale(0.015625)"/>
       <path id="DejaVuSans-64" d="M 2906 2969 
L 2906 4863 
L 3481 4863 
L 3481 0 
L 2906 0 
L 2906 525 
Q 2725 213 2448 61 
Q 2172 -91 1784 -91 
Q 1150 -91 751 415 
Q 353 922 353 1747 
Q 353 2572 751 3078 
Q 1150 3584 1784 3584 
Q 2172 3584 2448 3432 
Q 2725 3281 2906 2969 
z
M 947 1747 
Q 947 1113 1208 752 
Q 1469 391 1925 391 
Q 2381 391 2643 752 
Q 2906 1113 2906 1747 
Q 2906 2381 2643 2742 
Q 2381 3103 1925 3103 
Q 1469 3103 1208 2742 
Q 947 2381 947 1747 
z
" transform="scale(0.015625)"/>
       <path id="DejaVuSans-65" d="M 3597 1894 
L 3597 1613 
L 953 1613 
Q 991 1019 1311 708 
Q 1631 397 2203 397 
Q 2534 397 2845 478 
Q 3156 559 3463 722 
L 3463 178 
Q 3153 47 2828 -22 
Q 2503 -91 2169 -91 
Q 1331 -91 842 396 
Q 353 884 353 1716 
Q 353 2575 817 3079 
Q 1281 3584 2069 3584 
Q 2775 3584 3186 3129 
Q 3597 2675 3597 1894 
z
M 3022 2063 
Q 3016 2534 2758 2815 
Q 2500 3097 2075 3097 
Q 1594 3097 1305 2825 
Q 1016 2553 972 2059 
L 3022 2063 
z
" transform="scale(0.015625)"/>
       <path id="DejaVuSans-2c" d="M 750 794 
L 1409 794 
L 1409 256 
L 897 -744 
L 494 -744 
L 750 256 
L 750 794 
z
" transform="scale(0.015625)"/>
       <path id="DejaVuSans-20" transform="scale(0.015625)"/>
       <path id="DejaVuSans-72" d="M 2631 2963 
Q 2534 3019 2420 3045 
Q 2306 3072 2169 3072 
Q 1681 3072 1420 2755 
Q 1159 2438 1159 1844 
L 1159 0 
L 581 0 
L 581 3500 
L 1159 3500 
L 1159 2956 
Q 1341 3275 1631 3429 
Q 1922 3584 2338 3584 
Q 2397 3584 2469 3576 
Q 2541 3569 2628 3553 
L 2631 2963 
z
" transform="scale(0.015625)"/>
       <path id="DejaVuSans-28" d="M 1984 4856 
Q 1566 4138 1362 3434 
Q 1159 2731 1159 2009 
Q 1159 1288 1364 580 
Q 1569 -128 1984 -844 
L 1484 -844 
Q 1016 -109 783 600 
Q 550 1309 550 2009 
Q 550 2706 781 3412 
Q 1013 4119 1484 4856 
L 1984 4856 
z
" transform="scale(0.015625)"/>
       <path id="DejaVuSans-Oblique-52" d="M 1613 4147 
L 1294 2491 
L 2106 2491 
Q 2584 2491 2879 2755 
Q 3175 3019 3175 3444 
Q 3175 3784 2976 3965 
Q 2778 4147 2406 4147 
L 1613 4147 
z
M 2772 2241 
Q 2972 2194 3105 2009 
Q 3238 1825 3413 1275 
L 3809 0 
L 3144 0 
L 2778 1197 
Q 2638 1659 2453 1815 
Q 2269 1972 1888 1972 
L 1191 1972 
L 806 0 
L 172 0 
L 1081 4666 
L 2503 4666 
Q 3150 4666 3495 4373 
Q 3841 4081 3841 3531 
Q 3841 3044 3547 2687 
Q 3253 2331 2772 2241 
z
" transform="scale(0.015625)"/>
       <path id="DejaVuSans-Oblique-57" d="M 616 4666 
L 1228 4666 
L 1453 697 
L 3213 4666 
L 3916 4666 
L 4147 697 
L 5888 4666 
L 6528 4666 
L 4453 0 
L 3659 0 
L 3444 3891 
L 1697 0 
L 903 0 
L 616 4666 
z
" transform="scale(0.015625)"/>
       <path id="DejaVuSans-Oblique-44" d="M 1081 4666 
L 2438 4666 
Q 3519 4666 4070 4208 
Q 4622 3750 4622 2847 
Q 4622 2250 4412 1698 
Q 4203 1147 3834 769 
Q 3463 381 2891 190 
Q 2319 0 1538 0 
L 172 0 
L 1081 4666 
z
M 1613 4147 
L 909 519 
L 1734 519 
Q 2794 519 3375 1128 
Q 3956 1738 3956 2847 
Q 3956 3519 3581 3833 
Q 3206 4147 2406 4147 
L 1613 4147 
z
" transform="scale(0.015625)"/>
       <path id="DejaVuSans-29" d="M 513 4856 
L 1013 4856 
Q 1481 4119 1714 3412 
Q 1947 2706 1947 2009 
Q 1947 1309 1714 600 
Q 1481 -109 1013 -844 
L 513 -844 
Q 928 -128 1133 580 
Q 1338 1288 1338 2009 
Q 1338 2731 1133 3434 
Q 928 4138 513 4856 
z
" transform="scale(0.015625)"/>
      </defs>
      <use xlink:href="#DejaVuSans-53" transform="translate(0 0.015625)"/>
      <use xlink:href="#DejaVuSans-e4" transform="translate(63.476562 0.015625)"/>
      <use xlink:href="#DejaVuSans-64" transform="translate(124.755859 0.015625)"/>
      <use xlink:href="#DejaVuSans-65" transform="translate(188.232422 0.015625)"/>
      <use xlink:href="#DejaVuSans-2c" transform="translate(249.755859 0.015625)"/>
      <use xlink:href="#DejaVuSans-20" transform="translate(281.542969 0.015625)"/>
      <use xlink:href="#DejaVuSans-72" transform="translate(313.330078 0.015625)"/>
      <use xlink:href="#DejaVuSans-20" transform="translate(354.443359 0.015625)"/>
      <use xlink:href="#DejaVuSans-28" transform="translate(386.230469 0.015625)"/>
      <use xlink:href="#DejaVuSans-Oblique-52" transform="translate(425.244141 0.015625)"/>
      <use xlink:href="#DejaVuSans-Oblique-57" transform="translate(494.726562 -16.390625) scale(0.7)"/>
      <use xlink:href="#DejaVuSans-Oblique-44" transform="translate(563.94043 -16.390625) scale(0.7)"/>
      <use xlink:href="#DejaVuSans-29" transform="translate(620.576172 0.015625)"/>
     </g>
    </g>
   </g>
   <g id="matplotlib.axis_2">
    <g id="ytick_1">
     <g id="line2d_11">
      <path d="M 104.32512 400.431609 
L 548.229606 400.431609 
" clip-path="url(#paac7f7569c)" style="fill: none; stroke: #b0b0b0; stroke-width: 0.8; stroke-linecap: square"/>
     </g>
     <g id="line2d_12">
      <defs>
       <path id="m6a6cc1a76f" d="M 0 0 
L -3.5 0 
" style="stroke: #000000; stroke-width: 0.8"/>
      </defs>
      <g>
       <use xlink:href="#m6a6cc1a76f" x="104.32512" y="400.431609" style="stroke: #000000; stroke-width: 0.8"/>
      </g>
     </g>
     <g id="text_7">
      <!-- $\mathdefault{10^{0}}$ -->
      <g transform="translate(79.72512 404.230828) scale(0.1 -0.1)">
       <defs>
        <path id="DejaVuSans-31" d="M 794 531 
L 1825 531 
L 1825 4091 
L 703 3866 
L 703 4441 
L 1819 4666 
L 2450 4666 
L 2450 531 
L 3481 531 
L 3481 0 
L 794 0 
L 794 531 
z
" transform="scale(0.015625)"/>
       </defs>
       <use xlink:href="#DejaVuSans-31" transform="translate(0 0.765625)"/>
       <use xlink:href="#DejaVuSans-30" transform="translate(63.623047 0.765625)"/>
       <use xlink:href="#DejaVuSans-30" transform="translate(128.203125 39.046875) scale(0.7)"/>
      </g>
     </g>
    </g>
    <g id="ytick_2">
     <g id="line2d_13">
      <defs>
       <path id="m3db9118703" d="M 0 0 
L -2 0 
" style="stroke: #000000; stroke-width: 0.6"/>
      </defs>
      <g>
       <use xlink:href="#m3db9118703" x="104.32512" y="355.689332" style="stroke: #000000; stroke-width: 0.6"/>
      </g>
     </g>
     <g id="text_8">
      <!-- $\mathdefault{1.01\times10^{0}}$ -->
      <g transform="translate(46.82512 359.488551) scale(0.1 -0.1)">
       <defs>
        <path id="DejaVuSans-d7" d="M 4488 3438 
L 3059 2003 
L 4488 575 
L 4116 197 
L 2681 1631 
L 1247 197 
L 878 575 
L 2303 2003 
L 878 3438 
L 1247 3816 
L 2681 2381 
L 4116 3816 
L 4488 3438 
z
" transform="scale(0.015625)"/>
       </defs>
       <use xlink:href="#DejaVuSans-31" transform="translate(0 0.765625)"/>
       <use xlink:href="#DejaVuSans-2e" transform="translate(63.623047 0.765625)"/>
       <use xlink:href="#DejaVuSans-30" transform="translate(95.410156 0.765625)"/>
       <use xlink:href="#DejaVuSans-31" transform="translate(159.033203 0.765625)"/>
       <use xlink:href="#DejaVuSans-d7" transform="translate(242.138672 0.765625)"/>
       <use xlink:href="#DejaVuSans-31" transform="translate(345.410156 0.765625)"/>
       <use xlink:href="#DejaVuSans-30" transform="translate(409.033203 0.765625)"/>
       <use xlink:href="#DejaVuSans-30" transform="translate(473.613281 39.046875) scale(0.7)"/>
      </g>
     </g>
    </g>
    <g id="ytick_3">
     <g id="line2d_14">
      <g>
       <use xlink:href="#m3db9118703" x="104.32512" y="311.387873" style="stroke: #000000; stroke-width: 0.6"/>
      </g>
     </g>
     <g id="text_9">
      <!-- $\mathdefault{1.02\times10^{0}}$ -->
      <g transform="translate(46.82512 315.187092) scale(0.1 -0.1)">
       <use xlink:href="#DejaVuSans-31" transform="translate(0 0.765625)"/>
       <use xlink:href="#DejaVuSans-2e" transform="translate(63.623047 0.765625)"/>
       <use xlink:href="#DejaVuSans-30" transform="translate(95.410156 0.765625)"/>
       <use xlink:href="#DejaVuSans-32" transform="translate(159.033203 0.765625)"/>
       <use xlink:href="#DejaVuSans-d7" transform="translate(242.138672 0.765625)"/>
       <use xlink:href="#DejaVuSans-31" transform="translate(345.410156 0.765625)"/>
       <use xlink:href="#DejaVuSans-30" transform="translate(409.033203 0.765625)"/>
       <use xlink:href="#DejaVuSans-30" transform="translate(473.613281 39.046875) scale(0.7)"/>
      </g>
     </g>
    </g>
    <g id="ytick_4">
     <g id="line2d_15">
      <g>
       <use xlink:href="#m3db9118703" x="104.32512" y="267.51863" style="stroke: #000000; stroke-width: 0.6"/>
      </g>
     </g>
     <g id="text_10">
      <!-- $\mathdefault{1.03\times10^{0}}$ -->
      <g transform="translate(46.82512 271.317849) scale(0.1 -0.1)">
       <defs>
        <path id="DejaVuSans-33" d="M 2597 2516 
Q 3050 2419 3304 2112 
Q 3559 1806 3559 1356 
Q 3559 666 3084 287 
Q 2609 -91 1734 -91 
Q 1441 -91 1130 -33 
Q 819 25 488 141 
L 488 750 
Q 750 597 1062 519 
Q 1375 441 1716 441 
Q 2309 441 2620 675 
Q 2931 909 2931 1356 
Q 2931 1769 2642 2001 
Q 2353 2234 1838 2234 
L 1294 2234 
L 1294 2753 
L 1863 2753 
Q 2328 2753 2575 2939 
Q 2822 3125 2822 3475 
Q 2822 3834 2567 4026 
Q 2313 4219 1838 4219 
Q 1578 4219 1281 4162 
Q 984 4106 628 3988 
L 628 4550 
Q 988 4650 1302 4700 
Q 1616 4750 1894 4750 
Q 2613 4750 3031 4423 
Q 3450 4097 3450 3541 
Q 3450 3153 3228 2886 
Q 3006 2619 2597 2516 
z
" transform="scale(0.015625)"/>
       </defs>
       <use xlink:href="#DejaVuSans-31" transform="translate(0 0.765625)"/>
       <use xlink:href="#DejaVuSans-2e" transform="translate(63.623047 0.765625)"/>
       <use xlink:href="#DejaVuSans-30" transform="translate(95.410156 0.765625)"/>
       <use xlink:href="#DejaVuSans-33" transform="translate(159.033203 0.765625)"/>
       <use xlink:href="#DejaVuSans-d7" transform="translate(242.138672 0.765625)"/>
       <use xlink:href="#DejaVuSans-31" transform="translate(345.410156 0.765625)"/>
       <use xlink:href="#DejaVuSans-30" transform="translate(409.033203 0.765625)"/>
       <use xlink:href="#DejaVuSans-30" transform="translate(473.613281 39.046875) scale(0.7)"/>
      </g>
     </g>
    </g>
    <g id="ytick_5">
     <g id="line2d_16">
      <g>
       <use xlink:href="#m3db9118703" x="104.32512" y="224.073251" style="stroke: #000000; stroke-width: 0.6"/>
      </g>
     </g>
     <g id="text_11">
      <!-- $\mathdefault{1.04\times10^{0}}$ -->
      <g transform="translate(46.82512 227.87247) scale(0.1 -0.1)">
       <use xlink:href="#DejaVuSans-31" transform="translate(0 0.765625)"/>
       <use xlink:href="#DejaVuSans-2e" transform="translate(63.623047 0.765625)"/>
       <use xlink:href="#DejaVuSans-30" transform="translate(95.410156 0.765625)"/>
       <use xlink:href="#DejaVuSans-34" transform="translate(159.033203 0.765625)"/>
       <use xlink:href="#DejaVuSans-d7" transform="translate(242.138672 0.765625)"/>
       <use xlink:href="#DejaVuSans-31" transform="translate(345.410156 0.765625)"/>
       <use xlink:href="#DejaVuSans-30" transform="translate(409.033203 0.765625)"/>
       <use xlink:href="#DejaVuSans-30" transform="translate(473.613281 39.046875) scale(0.7)"/>
      </g>
     </g>
    </g>
    <g id="ytick_6">
     <g id="line2d_17">
      <g>
       <use xlink:href="#m3db9118703" x="104.32512" y="181.043624" style="stroke: #000000; stroke-width: 0.6"/>
      </g>
     </g>
     <g id="text_12">
      <!-- $\mathdefault{1.05\times10^{0}}$ -->
      <g transform="translate(46.82512 184.842843) scale(0.1 -0.1)">
       <defs>
        <path id="DejaVuSans-35" d="M 691 4666 
L 3169 4666 
L 3169 4134 
L 1269 4134 
L 1269 2991 
Q 1406 3038 1543 3061 
Q 1681 3084 1819 3084 
Q 2600 3084 3056 2656 
Q 3513 2228 3513 1497 
Q 3513 744 3044 326 
Q 2575 -91 1722 -91 
Q 1428 -91 1123 -41 
Q 819 9 494 109 
L 494 744 
Q 775 591 1075 516 
Q 1375 441 1709 441 
Q 2250 441 2565 725 
Q 2881 1009 2881 1497 
Q 2881 1984 2565 2268 
Q 2250 2553 1709 2553 
Q 1456 2553 1204 2497 
Q 953 2441 691 2322 
L 691 4666 
z
" transform="scale(0.015625)"/>
       </defs>
       <use xlink:href="#DejaVuSans-31" transform="translate(0 0.765625)"/>
       <use xlink:href="#DejaVuSans-2e" transform="translate(63.623047 0.765625)"/>
       <use xlink:href="#DejaVuSans-30" transform="translate(95.410156 0.765625)"/>
       <use xlink:href="#DejaVuSans-35" transform="translate(159.033203 0.765625)"/>
       <use xlink:href="#DejaVuSans-d7" transform="translate(242.138672 0.765625)"/>
       <use xlink:href="#DejaVuSans-31" transform="translate(345.410156 0.765625)"/>
       <use xlink:href="#DejaVuSans-30" transform="translate(409.033203 0.765625)"/>
       <use xlink:href="#DejaVuSans-30" transform="translate(473.613281 39.046875) scale(0.7)"/>
      </g>
     </g>
    </g>
    <g id="ytick_7">
     <g id="line2d_18">
      <g>
       <use xlink:href="#m3db9118703" x="104.32512" y="138.421867" style="stroke: #000000; stroke-width: 0.6"/>
      </g>
     </g>
     <g id="text_13">
      <!-- $\mathdefault{1.06\times10^{0}}$ -->
      <g transform="translate(46.82512 142.221085) scale(0.1 -0.1)">
       <use xlink:href="#DejaVuSans-31" transform="translate(0 0.765625)"/>
       <use xlink:href="#DejaVuSans-2e" transform="translate(63.623047 0.765625)"/>
       <use xlink:href="#DejaVuSans-30" transform="translate(95.410156 0.765625)"/>
       <use xlink:href="#DejaVuSans-36" transform="translate(159.033203 0.765625)"/>
       <use xlink:href="#DejaVuSans-d7" transform="translate(242.138672 0.765625)"/>
       <use xlink:href="#DejaVuSans-31" transform="translate(345.410156 0.765625)"/>
       <use xlink:href="#DejaVuSans-30" transform="translate(409.033203 0.765625)"/>
       <use xlink:href="#DejaVuSans-30" transform="translate(473.613281 39.046875) scale(0.7)"/>
      </g>
     </g>
    </g>
    <g id="ytick_8">
     <g id="line2d_19">
      <g>
       <use xlink:href="#m3db9118703" x="104.32512" y="96.200319" style="stroke: #000000; stroke-width: 0.6"/>
      </g>
     </g>
     <g id="text_14">
      <!-- $\mathdefault{1.07\times10^{0}}$ -->
      <g transform="translate(46.82512 99.999538) scale(0.1 -0.1)">
       <defs>
        <path id="DejaVuSans-37" d="M 525 4666 
L 3525 4666 
L 3525 4397 
L 1831 0 
L 1172 0 
L 2766 4134 
L 525 4134 
L 525 4666 
z
" transform="scale(0.015625)"/>
       </defs>
       <use xlink:href="#DejaVuSans-31" transform="translate(0 0.765625)"/>
       <use xlink:href="#DejaVuSans-2e" transform="translate(63.623047 0.765625)"/>
       <use xlink:href="#DejaVuSans-30" transform="translate(95.410156 0.765625)"/>
       <use xlink:href="#DejaVuSans-37" transform="translate(159.033203 0.765625)"/>
       <use xlink:href="#DejaVuSans-d7" transform="translate(242.138672 0.765625)"/>
       <use xlink:href="#DejaVuSans-31" transform="translate(345.410156 0.765625)"/>
       <use xlink:href="#DejaVuSans-30" transform="translate(409.033203 0.765625)"/>
       <use xlink:href="#DejaVuSans-30" transform="translate(473.613281 39.046875) scale(0.7)"/>
      </g>
     </g>
    </g>
    <g id="ytick_9">
     <g id="line2d_20">
      <g>
       <use xlink:href="#m3db9118703" x="104.32512" y="54.371536" style="stroke: #000000; stroke-width: 0.6"/>
      </g>
     </g>
     <g id="text_15">
      <!-- $\mathdefault{1.08\times10^{0}}$ -->
      <g transform="translate(46.82512 58.170755) scale(0.1 -0.1)">
       <use xlink:href="#DejaVuSans-31" transform="translate(0 0.765625)"/>
       <use xlink:href="#DejaVuSans-2e" transform="translate(63.623047 0.765625)"/>
       <use xlink:href="#DejaVuSans-30" transform="translate(95.410156 0.765625)"/>
       <use xlink:href="#DejaVuSans-38" transform="translate(159.033203 0.765625)"/>
       <use xlink:href="#DejaVuSans-d7" transform="translate(242.138672 0.765625)"/>
       <use xlink:href="#DejaVuSans-31" transform="translate(345.410156 0.765625)"/>
       <use xlink:href="#DejaVuSans-30" transform="translate(409.033203 0.765625)"/>
       <use xlink:href="#DejaVuSans-30" transform="translate(473.613281 39.046875) scale(0.7)"/>
      </g>
     </g>
    </g>
    <g id="text_16">
     <!-- $\frac{\rho_{newt}}{\rho_{tov}}$ -->
     <g transform="translate(38.62512 240.545417) rotate(-90) scale(0.1 -0.1)">
      <defs>
       <path id="DejaVuSans-Oblique-3c1" d="M 1203 2875 
Q 1453 3194 1981 3475 
Q 2188 3584 2756 3584 
Q 3394 3584 3694 3078 
Q 3994 2572 3834 1747 
Q 3672 922 3175 415 
Q 2678 -91 2041 -91 
Q 1656 -91 1409 63 
Q 1163 213 1044 525 
L 681 -1331 
L 103 -1331 
L 697 1716 
Q 838 2438 1203 2875 
z
M 3238 1747 
Q 3359 2381 3169 2744 
Q 2978 3103 2522 3103 
Q 2066 3103 1734 2744 
Q 1403 2381 1281 1747 
Q 1156 1113 1347 750 
Q 1538 391 1994 391 
Q 2450 391 2781 750 
Q 3113 1113 3238 1747 
z
" transform="scale(0.015625)"/>
       <path id="DejaVuSans-Oblique-6e" d="M 3566 2113 
L 3156 0 
L 2578 0 
L 2988 2091 
Q 3016 2238 3031 2350 
Q 3047 2463 3047 2528 
Q 3047 2791 2881 2937 
Q 2716 3084 2419 3084 
Q 1956 3084 1622 2776 
Q 1288 2469 1184 1941 
L 800 0 
L 225 0 
L 903 3500 
L 1478 3500 
L 1363 2950 
Q 1603 3253 1940 3418 
Q 2278 3584 2650 3584 
Q 3113 3584 3367 3334 
Q 3622 3084 3622 2631 
Q 3622 2519 3608 2391 
Q 3594 2263 3566 2113 
z
" transform="scale(0.015625)"/>
       <path id="DejaVuSans-Oblique-65" d="M 3078 2063 
Q 3088 2113 3092 2166 
Q 3097 2219 3097 2272 
Q 3097 2653 2873 2875 
Q 2650 3097 2266 3097 
Q 1838 3097 1509 2826 
Q 1181 2556 1013 2059 
L 3078 2063 
z
M 3578 1613 
L 903 1613 
Q 884 1494 878 1425 
Q 872 1356 872 1306 
Q 872 872 1139 634 
Q 1406 397 1894 397 
Q 2269 397 2603 481 
Q 2938 566 3225 728 
L 3116 159 
Q 2806 34 2476 -28 
Q 2147 -91 1806 -91 
Q 1078 -91 686 257 
Q 294 606 294 1247 
Q 294 1794 489 2264 
Q 684 2734 1063 3103 
Q 1306 3334 1642 3459 
Q 1978 3584 2356 3584 
Q 2950 3584 3301 3228 
Q 3653 2872 3653 2272 
Q 3653 2128 3634 1964 
Q 3616 1800 3578 1613 
z
" transform="scale(0.015625)"/>
       <path id="DejaVuSans-Oblique-77" d="M 544 3500 
L 1113 3500 
L 1259 684 
L 2566 3500 
L 3231 3500 
L 3425 684 
L 4666 3500 
L 5241 3500 
L 3641 0 
L 2969 0 
L 2797 2900 
L 1459 0 
L 781 0 
L 544 3500 
z
" transform="scale(0.015625)"/>
       <path id="DejaVuSans-Oblique-74" d="M 2706 3500 
L 2619 3053 
L 1472 3053 
L 1100 1153 
Q 1081 1047 1072 975 
Q 1063 903 1063 863 
Q 1063 663 1183 572 
Q 1303 481 1569 481 
L 2150 481 
L 2053 0 
L 1503 0 
Q 991 0 739 200 
Q 488 400 488 806 
Q 488 878 497 964 
Q 506 1050 525 1153 
L 897 3053 
L 409 3053 
L 500 3500 
L 978 3500 
L 1172 4494 
L 1747 4494 
L 1556 3500 
L 2706 3500 
z
" transform="scale(0.015625)"/>
       <path id="DejaVuSans-Oblique-6f" d="M 1625 -91 
Q 1009 -91 651 289 
Q 294 669 294 1325 
Q 294 1706 417 2101 
Q 541 2497 738 2766 
Q 1047 3184 1428 3384 
Q 1809 3584 2291 3584 
Q 2888 3584 3255 3212 
Q 3622 2841 3622 2241 
Q 3622 1825 3500 1412 
Q 3378 1000 3181 728 
Q 2875 309 2494 109 
Q 2113 -91 1625 -91 
z
M 891 1344 
Q 891 869 1089 633 
Q 1288 397 1691 397 
Q 2269 397 2648 901 
Q 3028 1406 3028 2181 
Q 3028 2634 2825 2865 
Q 2622 3097 2228 3097 
Q 1903 3097 1650 2945 
Q 1397 2794 1197 2484 
Q 1050 2253 970 1956 
Q 891 1659 891 1344 
z
" transform="scale(0.015625)"/>
       <path id="DejaVuSans-Oblique-76" d="M 459 3500 
L 1069 3500 
L 1581 525 
L 3256 3500 
L 3866 3500 
L 1875 0 
L 1100 0 
L 459 3500 
z
" transform="scale(0.015625)"/>
      </defs>
      <use xlink:href="#DejaVuSans-Oblique-3c1" transform="translate(0 58.8) scale(0.7)"/>
      <use xlink:href="#DejaVuSans-Oblique-6e" transform="translate(44.433594 47.315625) scale(0.49)"/>
      <use xlink:href="#DejaVuSans-Oblique-65" transform="translate(75.489258 47.315625) scale(0.49)"/>
      <use xlink:href="#DejaVuSans-Oblique-77" transform="translate(105.635742 47.315625) scale(0.49)"/>
      <use xlink:href="#DejaVuSans-Oblique-74" transform="translate(145.711426 47.315625) scale(0.49)"/>
      <use xlink:href="#DejaVuSans-Oblique-3c1" transform="translate(21 -26.207812) scale(0.7)"/>
      <use xlink:href="#DejaVuSans-Oblique-74" transform="translate(65.433594 -37.692187) scale(0.49)"/>
      <use xlink:href="#DejaVuSans-Oblique-6f" transform="translate(84.645996 -37.692187) scale(0.49)"/>
      <use xlink:href="#DejaVuSans-Oblique-76" transform="translate(114.625 -37.692187) scale(0.49)"/>
      <path d="M 0 19.242188 
L 0 25.492188 
L 166.837891 25.492188 
L 166.837891 19.242188 
L 0 19.242188 
z
"/>
     </g>
    </g>
   </g>
   <g id="line2d_21">
    <path d="M 528.052129 400.431609 
L 516.451172 400.323223 
L 509.385134 399.93991 
L 503.690118 399.333093 
L 497.995102 398.501609 
L 492.300086 397.443965 
L 486.605071 396.158915 
L 480.910055 394.645875 
L 475.215039 392.905321 
L 469.41456 390.900619 
L 463.508618 388.622926 
L 457.497213 386.065827 
L 451.274881 383.17487 
L 444.841622 379.938209 
L 438.091974 376.290092 
L 430.920473 372.156045 
L 423.221655 367.456357 
L 414.784595 362.041803 
L 405.081975 355.543067 
L 393.164628 347.279821 
L 373.970316 333.656869 
L 350.979326 317.410825 
L 336.214471 307.256719 
L 322.609711 298.168652 
L 309.004951 289.348182 
L 294.345559 280.113682 
L 276.100416 268.90037 
L 244.250513 249.36351 
L 232.860482 242.08389 
L 223.579716 235.896066 
L 215.564508 230.290401 
L 208.393007 225.005965 
L 201.959749 219.994856 
L 196.053806 215.119418 
L 190.569717 210.309777 
L 185.402018 205.482835 
L 180.550708 200.645869 
L 176.015788 195.812266 
L 171.691795 190.87778 
L 167.578728 185.843089 
L 163.676587 180.712598 
L 159.985374 175.49486 
L 156.399623 170.036901 
L 153.024799 164.498422 
L 149.755438 158.707906 
L 146.59154 152.648194 
L 143.533106 146.30197 
L 140.580135 139.65195 
L 137.732627 132.680976 
L 134.990582 125.372653 
L 132.354001 117.711636 
L 129.822883 109.683804 
L 127.291765 100.894704 
L 124.86611 91.644749 
L 124.539118 89.943865 
L 124.502624 84.210494 
L 124.502597 62.659225 
L 124.502597 62.659225 
" clip-path="url(#paac7f7569c)" style="fill: none; stroke: #0000ff; stroke-width: 1.5; stroke-linecap: square"/>
   </g>
   <g id="patch_3">
    <path d="M 104.32512 417.320229 
L 104.32512 45.770606 
" style="fill: none; stroke: #000000; stroke-width: 0.8; stroke-linejoin: miter; stroke-linecap: square"/>
   </g>
   <g id="patch_4">
    <path d="M 548.229606 417.320229 
L 548.229606 45.770606 
" style="fill: none; stroke: #000000; stroke-width: 0.8; stroke-linejoin: miter; stroke-linecap: square"/>
   </g>
   <g id="patch_5">
    <path d="M 104.32512 417.320229 
L 548.229606 417.320229 
" style="fill: none; stroke: #000000; stroke-width: 0.8; stroke-linejoin: miter; stroke-linecap: square"/>
   </g>
   <g id="patch_6">
    <path d="M 104.32512 45.770606 
L 548.229606 45.770606 
" style="fill: none; stroke: #000000; stroke-width: 0.8; stroke-linejoin: miter; stroke-linecap: square"/>
   </g>
   <g id="text_17">
    <!-- e) -->
    <g transform="translate(104.32512 39.770606) scale(0.12 -0.12)">
     <use xlink:href="#DejaVuSans-65"/>
     <use xlink:href="#DejaVuSans-29" x="61.523438"/>
    </g>
   </g>
   <g id="legend_1">
    <g id="patch_7">
     <path d="M 251.104606 99.826543 
L 543.229606 99.826543 
Q 545.229606 99.826543 545.229606 97.826543 
L 545.229606 54.770606 
Q 545.229606 52.770606 543.229606 52.770606 
L 251.104606 52.770606 
Q 249.104606 52.770606 249.104606 54.770606 
L 249.104606 97.826543 
Q 249.104606 99.826543 251.104606 99.826543 
z
" style="fill: #4c4c4c; opacity: 0.5; stroke: #4c4c4c; stroke-linejoin: miter"/>
    </g>
    <g id="patch_8">
     <path d="M 249.104606 97.826543 
L 541.229606 97.826543 
Q 543.229606 97.826543 543.229606 95.826543 
L 543.229606 52.770606 
Q 543.229606 50.770606 541.229606 50.770606 
L 249.104606 50.770606 
Q 247.104606 50.770606 247.104606 52.770606 
L 247.104606 95.826543 
Q 247.104606 97.826543 249.104606 97.826543 
z
" style="fill: #ffffff; stroke: #cccccc; stroke-linejoin: miter"/>
    </g>
    <g id="line2d_22">
     <path d="M 251.104606 74.597793 
L 261.104606 74.597793 
L 271.104606 74.597793 
" style="fill: none; stroke: #0000ff; stroke-width: 1.5; stroke-linecap: square"/>
    </g>
    <g id="text_18">
     <!-- Teorioiden välinen suhde keskipisteen parametreilla -->
     <g transform="translate(279.104606 62.369043) scale(0.1 -0.1)">
      <defs>
       <path id="DejaVuSans-54" d="M -19 4666 
L 3928 4666 
L 3928 4134 
L 2272 4134 
L 2272 0 
L 1638 0 
L 1638 4134 
L -19 4134 
L -19 4666 
z
" transform="scale(0.015625)"/>
       <path id="DejaVuSans-6f" d="M 1959 3097 
Q 1497 3097 1228 2736 
Q 959 2375 959 1747 
Q 959 1119 1226 758 
Q 1494 397 1959 397 
Q 2419 397 2687 759 
Q 2956 1122 2956 1747 
Q 2956 2369 2687 2733 
Q 2419 3097 1959 3097 
z
M 1959 3584 
Q 2709 3584 3137 3096 
Q 3566 2609 3566 1747 
Q 3566 888 3137 398 
Q 2709 -91 1959 -91 
Q 1206 -91 779 398 
Q 353 888 353 1747 
Q 353 2609 779 3096 
Q 1206 3584 1959 3584 
z
" transform="scale(0.015625)"/>
       <path id="DejaVuSans-69" d="M 603 3500 
L 1178 3500 
L 1178 0 
L 603 0 
L 603 3500 
z
M 603 4863 
L 1178 4863 
L 1178 4134 
L 603 4134 
L 603 4863 
z
" transform="scale(0.015625)"/>
       <path id="DejaVuSans-6e" d="M 3513 2113 
L 3513 0 
L 2938 0 
L 2938 2094 
Q 2938 2591 2744 2837 
Q 2550 3084 2163 3084 
Q 1697 3084 1428 2787 
Q 1159 2491 1159 1978 
L 1159 0 
L 581 0 
L 581 3500 
L 1159 3500 
L 1159 2956 
Q 1366 3272 1645 3428 
Q 1925 3584 2291 3584 
Q 2894 3584 3203 3211 
Q 3513 2838 3513 2113 
z
" transform="scale(0.015625)"/>
       <path id="DejaVuSans-76" d="M 191 3500 
L 800 3500 
L 1894 563 
L 2988 3500 
L 3597 3500 
L 2284 0 
L 1503 0 
L 191 3500 
z
" transform="scale(0.015625)"/>
       <path id="DejaVuSans-6c" d="M 603 4863 
L 1178 4863 
L 1178 0 
L 603 0 
L 603 4863 
z
" transform="scale(0.015625)"/>
       <path id="DejaVuSans-73" d="M 2834 3397 
L 2834 2853 
Q 2591 2978 2328 3040 
Q 2066 3103 1784 3103 
Q 1356 3103 1142 2972 
Q 928 2841 928 2578 
Q 928 2378 1081 2264 
Q 1234 2150 1697 2047 
L 1894 2003 
Q 2506 1872 2764 1633 
Q 3022 1394 3022 966 
Q 3022 478 2636 193 
Q 2250 -91 1575 -91 
Q 1294 -91 989 -36 
Q 684 19 347 128 
L 347 722 
Q 666 556 975 473 
Q 1284 391 1588 391 
Q 1994 391 2212 530 
Q 2431 669 2431 922 
Q 2431 1156 2273 1281 
Q 2116 1406 1581 1522 
L 1381 1569 
Q 847 1681 609 1914 
Q 372 2147 372 2553 
Q 372 3047 722 3315 
Q 1072 3584 1716 3584 
Q 2034 3584 2315 3537 
Q 2597 3491 2834 3397 
z
" transform="scale(0.015625)"/>
       <path id="DejaVuSans-75" d="M 544 1381 
L 544 3500 
L 1119 3500 
L 1119 1403 
Q 1119 906 1312 657 
Q 1506 409 1894 409 
Q 2359 409 2629 706 
Q 2900 1003 2900 1516 
L 2900 3500 
L 3475 3500 
L 3475 0 
L 2900 0 
L 2900 538 
Q 2691 219 2414 64 
Q 2138 -91 1772 -91 
Q 1169 -91 856 284 
Q 544 659 544 1381 
z
M 1991 3584 
L 1991 3584 
z
" transform="scale(0.015625)"/>
       <path id="DejaVuSans-68" d="M 3513 2113 
L 3513 0 
L 2938 0 
L 2938 2094 
Q 2938 2591 2744 2837 
Q 2550 3084 2163 3084 
Q 1697 3084 1428 2787 
Q 1159 2491 1159 1978 
L 1159 0 
L 581 0 
L 581 4863 
L 1159 4863 
L 1159 2956 
Q 1366 3272 1645 3428 
Q 1925 3584 2291 3584 
Q 2894 3584 3203 3211 
Q 3513 2838 3513 2113 
z
" transform="scale(0.015625)"/>
       <path id="DejaVuSans-6b" d="M 581 4863 
L 1159 4863 
L 1159 1991 
L 2875 3500 
L 3609 3500 
L 1753 1863 
L 3688 0 
L 2938 0 
L 1159 1709 
L 1159 0 
L 581 0 
L 581 4863 
z
" transform="scale(0.015625)"/>
       <path id="DejaVuSans-70" d="M 1159 525 
L 1159 -1331 
L 581 -1331 
L 581 3500 
L 1159 3500 
L 1159 2969 
Q 1341 3281 1617 3432 
Q 1894 3584 2278 3584 
Q 2916 3584 3314 3078 
Q 3713 2572 3713 1747 
Q 3713 922 3314 415 
Q 2916 -91 2278 -91 
Q 1894 -91 1617 61 
Q 1341 213 1159 525 
z
M 3116 1747 
Q 3116 2381 2855 2742 
Q 2594 3103 2138 3103 
Q 1681 3103 1420 2742 
Q 1159 2381 1159 1747 
Q 1159 1113 1420 752 
Q 1681 391 2138 391 
Q 2594 391 2855 752 
Q 3116 1113 3116 1747 
z
" transform="scale(0.015625)"/>
       <path id="DejaVuSans-74" d="M 1172 4494 
L 1172 3500 
L 2356 3500 
L 2356 3053 
L 1172 3053 
L 1172 1153 
Q 1172 725 1289 603 
Q 1406 481 1766 481 
L 2356 481 
L 2356 0 
L 1766 0 
Q 1100 0 847 248 
Q 594 497 594 1153 
L 594 3053 
L 172 3053 
L 172 3500 
L 594 3500 
L 594 4494 
L 1172 4494 
z
" transform="scale(0.015625)"/>
       <path id="DejaVuSans-61" d="M 2194 1759 
Q 1497 1759 1228 1600 
Q 959 1441 959 1056 
Q 959 750 1161 570 
Q 1363 391 1709 391 
Q 2188 391 2477 730 
Q 2766 1069 2766 1631 
L 2766 1759 
L 2194 1759 
z
M 3341 1997 
L 3341 0 
L 2766 0 
L 2766 531 
Q 2569 213 2275 61 
Q 1981 -91 1556 -91 
Q 1019 -91 701 211 
Q 384 513 384 1019 
Q 384 1609 779 1909 
Q 1175 2209 1959 2209 
L 2766 2209 
L 2766 2266 
Q 2766 2663 2505 2880 
Q 2244 3097 1772 3097 
Q 1472 3097 1187 3025 
Q 903 2953 641 2809 
L 641 3341 
Q 956 3463 1253 3523 
Q 1550 3584 1831 3584 
Q 2591 3584 2966 3190 
Q 3341 2797 3341 1997 
z
" transform="scale(0.015625)"/>
       <path id="DejaVuSans-6d" d="M 3328 2828 
Q 3544 3216 3844 3400 
Q 4144 3584 4550 3584 
Q 5097 3584 5394 3201 
Q 5691 2819 5691 2113 
L 5691 0 
L 5113 0 
L 5113 2094 
Q 5113 2597 4934 2840 
Q 4756 3084 4391 3084 
Q 3944 3084 3684 2787 
Q 3425 2491 3425 1978 
L 3425 0 
L 2847 0 
L 2847 2094 
Q 2847 2600 2669 2842 
Q 2491 3084 2119 3084 
Q 1678 3084 1418 2786 
Q 1159 2488 1159 1978 
L 1159 0 
L 581 0 
L 581 3500 
L 1159 3500 
L 1159 2956 
Q 1356 3278 1631 3431 
Q 1906 3584 2284 3584 
Q 2666 3584 2933 3390 
Q 3200 3197 3328 2828 
z
" transform="scale(0.015625)"/>
      </defs>
      <use xlink:href="#DejaVuSans-54"/>
      <use xlink:href="#DejaVuSans-65" x="44.083984"/>
      <use xlink:href="#DejaVuSans-6f" x="105.607422"/>
      <use xlink:href="#DejaVuSans-72" x="166.789062"/>
      <use xlink:href="#DejaVuSans-69" x="207.902344"/>
      <use xlink:href="#DejaVuSans-6f" x="235.685547"/>
      <use xlink:href="#DejaVuSans-69" x="296.867188"/>
      <use xlink:href="#DejaVuSans-64" x="324.650391"/>
      <use xlink:href="#DejaVuSans-65" x="388.126953"/>
      <use xlink:href="#DejaVuSans-6e" x="449.650391"/>
      <use xlink:href="#DejaVuSans-20" x="513.029297"/>
      <use xlink:href="#DejaVuSans-76" x="544.816406"/>
      <use xlink:href="#DejaVuSans-e4" x="603.996094"/>
      <use xlink:href="#DejaVuSans-6c" x="665.275391"/>
      <use xlink:href="#DejaVuSans-69" x="693.058594"/>
      <use xlink:href="#DejaVuSans-6e" x="720.841797"/>
      <use xlink:href="#DejaVuSans-65" x="784.220703"/>
      <use xlink:href="#DejaVuSans-6e" x="845.744141"/>
      <use xlink:href="#DejaVuSans-20" x="909.123047"/>
      <use xlink:href="#DejaVuSans-73" x="940.910156"/>
      <use xlink:href="#DejaVuSans-75" x="993.009766"/>
      <use xlink:href="#DejaVuSans-68" x="1056.388672"/>
      <use xlink:href="#DejaVuSans-64" x="1119.767578"/>
      <use xlink:href="#DejaVuSans-65" x="1183.244141"/>
      <use xlink:href="#DejaVuSans-20" x="1244.767578"/>
      <use xlink:href="#DejaVuSans-6b" x="1276.554688"/>
      <use xlink:href="#DejaVuSans-65" x="1330.839844"/>
      <use xlink:href="#DejaVuSans-73" x="1392.363281"/>
      <use xlink:href="#DejaVuSans-6b" x="1444.462891"/>
      <use xlink:href="#DejaVuSans-69" x="1502.373047"/>
      <use xlink:href="#DejaVuSans-70" x="1530.15625"/>
      <use xlink:href="#DejaVuSans-69" x="1593.632812"/>
      <use xlink:href="#DejaVuSans-73" x="1621.416016"/>
      <use xlink:href="#DejaVuSans-74" x="1673.515625"/>
      <use xlink:href="#DejaVuSans-65" x="1712.724609"/>
      <use xlink:href="#DejaVuSans-65" x="1774.248047"/>
      <use xlink:href="#DejaVuSans-6e" x="1835.771484"/>
      <use xlink:href="#DejaVuSans-20" x="1899.150391"/>
      <use xlink:href="#DejaVuSans-70" x="1930.9375"/>
      <use xlink:href="#DejaVuSans-61" x="1994.414062"/>
      <use xlink:href="#DejaVuSans-72" x="2055.693359"/>
      <use xlink:href="#DejaVuSans-61" x="2096.806641"/>
      <use xlink:href="#DejaVuSans-6d" x="2158.085938"/>
      <use xlink:href="#DejaVuSans-65" x="2255.498047"/>
      <use xlink:href="#DejaVuSans-74" x="2317.021484"/>
      <use xlink:href="#DejaVuSans-72" x="2356.230469"/>
      <use xlink:href="#DejaVuSans-65" x="2395.09375"/>
      <use xlink:href="#DejaVuSans-69" x="2456.617188"/>
      <use xlink:href="#DejaVuSans-6c" x="2484.400391"/>
      <use xlink:href="#DejaVuSans-6c" x="2512.183594"/>
      <use xlink:href="#DejaVuSans-61" x="2539.966797"/>
     </g>
     <!-- $\rho_c$ = 4.17e+30 $\frac{\mathrm{J}}{\mathrm{m}^{3}}$ -->
     <g transform="translate(279.104606 77.528731) scale(0.1 -0.1)">
      <defs>
       <path id="DejaVuSans-Oblique-63" d="M 3431 3366 
L 3316 2797 
Q 3109 2947 2876 3022 
Q 2644 3097 2394 3097 
Q 2119 3097 1870 3000 
Q 1622 2903 1453 2725 
Q 1184 2453 1037 2087 
Q 891 1722 891 1331 
Q 891 859 1127 628 
Q 1363 397 1844 397 
Q 2081 397 2348 469 
Q 2616 541 2906 684 
L 2797 116 
Q 2547 13 2283 -39 
Q 2019 -91 1741 -91 
Q 1044 -91 669 257 
Q 294 606 294 1253 
Q 294 1797 489 2255 
Q 684 2713 1069 3078 
Q 1331 3328 1684 3456 
Q 2038 3584 2456 3584 
Q 2700 3584 2940 3529 
Q 3181 3475 3431 3366 
z
" transform="scale(0.015625)"/>
       <path id="DejaVuSans-3d" d="M 678 2906 
L 4684 2906 
L 4684 2381 
L 678 2381 
L 678 2906 
z
M 678 1631 
L 4684 1631 
L 4684 1100 
L 678 1100 
L 678 1631 
z
" transform="scale(0.015625)"/>
       <path id="DejaVuSans-2b" d="M 2944 4013 
L 2944 2272 
L 4684 2272 
L 4684 1741 
L 2944 1741 
L 2944 0 
L 2419 0 
L 2419 1741 
L 678 1741 
L 678 2272 
L 2419 2272 
L 2419 4013 
L 2944 4013 
z
" transform="scale(0.015625)"/>
       <path id="DejaVuSans-4a" d="M 628 4666 
L 1259 4666 
L 1259 325 
Q 1259 -519 939 -900 
Q 619 -1281 -91 -1281 
L -331 -1281 
L -331 -750 
L -134 -750 
Q 284 -750 456 -515 
Q 628 -281 628 325 
L 628 4666 
z
" transform="scale(0.015625)"/>
      </defs>
      <use xlink:href="#DejaVuSans-Oblique-3c1" transform="translate(0 0.157813)"/>
      <use xlink:href="#DejaVuSans-Oblique-63" transform="translate(63.476562 -16.248437) scale(0.7)"/>
      <use xlink:href="#DejaVuSans-20" transform="translate(104.697266 0.157813)"/>
      <use xlink:href="#DejaVuSans-3d" transform="translate(136.484375 0.157813)"/>
      <use xlink:href="#DejaVuSans-20" transform="translate(220.273438 0.157813)"/>
      <use xlink:href="#DejaVuSans-34" transform="translate(252.060547 0.157813)"/>
      <use xlink:href="#DejaVuSans-2e" transform="translate(315.683594 0.157813)"/>
      <use xlink:href="#DejaVuSans-31" transform="translate(347.470703 0.157813)"/>
      <use xlink:href="#DejaVuSans-37" transform="translate(411.09375 0.157813)"/>
      <use xlink:href="#DejaVuSans-65" transform="translate(474.716797 0.157813)"/>
      <use xlink:href="#DejaVuSans-2b" transform="translate(536.240234 0.157813)"/>
      <use xlink:href="#DejaVuSans-33" transform="translate(620.029297 0.157813)"/>
      <use xlink:href="#DejaVuSans-30" transform="translate(683.652344 0.157813)"/>
      <use xlink:href="#DejaVuSans-20" transform="translate(747.275391 0.157813)"/>
      <use xlink:href="#DejaVuSans-4a" transform="translate(820.0625 57.965625) scale(0.7)"/>
      <use xlink:href="#DejaVuSans-6d" transform="translate(779.0625 -50.459375) scale(0.7)"/>
      <use xlink:href="#DejaVuSans-33" transform="translate(847.920898 -23.6625) scale(0.49)"/>
      <path d="M 779.0625 18.954688 
L 779.0625 25.204688 
L 881.010254 25.204688 
L 881.010254 18.954688 
L 779.0625 18.954688 
z
"/>
     </g>
     <!-- $R_{WD}$ = 1.32e-01 $R_{Earth}$ -->
     <g transform="translate(279.104606 91.746856) scale(0.1 -0.1)">
      <defs>
       <path id="DejaVuSans-2d" d="M 313 2009 
L 1997 2009 
L 1997 1497 
L 313 1497 
L 313 2009 
z
" transform="scale(0.015625)"/>
       <path id="DejaVuSans-Oblique-45" d="M 1081 4666 
L 4031 4666 
L 3928 4134 
L 1606 4134 
L 1338 2753 
L 3566 2753 
L 3463 2222 
L 1234 2222 
L 909 531 
L 3284 531 
L 3181 0 
L 172 0 
L 1081 4666 
z
" transform="scale(0.015625)"/>
       <path id="DejaVuSans-Oblique-61" d="M 3438 1997 
L 3047 0 
L 2472 0 
L 2578 531 
Q 2325 219 2001 64 
Q 1678 -91 1281 -91 
Q 834 -91 548 182 
Q 263 456 263 884 
Q 263 1497 752 1853 
Q 1241 2209 2100 2209 
L 2900 2209 
L 2931 2363 
Q 2938 2388 2941 2417 
Q 2944 2447 2944 2509 
Q 2944 2788 2717 2942 
Q 2491 3097 2081 3097 
Q 1800 3097 1504 3025 
Q 1209 2953 897 2809 
L 997 3341 
Q 1322 3463 1633 3523 
Q 1944 3584 2234 3584 
Q 2853 3584 3176 3315 
Q 3500 3047 3500 2534 
Q 3500 2431 3484 2292 
Q 3469 2153 3438 1997 
z
M 2816 1759 
L 2241 1759 
Q 1534 1759 1195 1570 
Q 856 1381 856 984 
Q 856 709 1029 553 
Q 1203 397 1509 397 
Q 1978 397 2328 733 
Q 2678 1069 2791 1631 
L 2816 1759 
z
" transform="scale(0.015625)"/>
       <path id="DejaVuSans-Oblique-72" d="M 2853 2969 
Q 2766 3016 2653 3041 
Q 2541 3066 2413 3066 
Q 1953 3066 1609 2717 
Q 1266 2369 1153 1784 
L 800 0 
L 225 0 
L 909 3500 
L 1484 3500 
L 1375 2956 
Q 1603 3259 1920 3421 
Q 2238 3584 2597 3584 
Q 2691 3584 2781 3573 
Q 2872 3563 2963 3538 
L 2853 2969 
z
" transform="scale(0.015625)"/>
       <path id="DejaVuSans-Oblique-68" d="M 3566 2113 
L 3156 0 
L 2578 0 
L 2988 2091 
Q 3016 2238 3031 2350 
Q 3047 2463 3047 2528 
Q 3047 2791 2881 2937 
Q 2716 3084 2419 3084 
Q 1956 3084 1617 2771 
Q 1278 2459 1178 1941 
L 800 0 
L 225 0 
L 1172 4863 
L 1747 4863 
L 1375 2950 
Q 1594 3244 1934 3414 
Q 2275 3584 2650 3584 
Q 3113 3584 3367 3334 
Q 3622 3084 3622 2631 
Q 3622 2519 3608 2391 
Q 3594 2263 3566 2113 
z
" transform="scale(0.015625)"/>
      </defs>
      <use xlink:href="#DejaVuSans-Oblique-52" transform="translate(0 0.78125)"/>
      <use xlink:href="#DejaVuSans-Oblique-57" transform="translate(69.482422 -15.625) scale(0.7)"/>
      <use xlink:href="#DejaVuSans-Oblique-44" transform="translate(138.696289 -15.625) scale(0.7)"/>
      <use xlink:href="#DejaVuSans-20" transform="translate(195.332031 0.78125)"/>
      <use xlink:href="#DejaVuSans-3d" transform="translate(227.119141 0.78125)"/>
      <use xlink:href="#DejaVuSans-20" transform="translate(310.908203 0.78125)"/>
      <use xlink:href="#DejaVuSans-31" transform="translate(342.695312 0.78125)"/>
      <use xlink:href="#DejaVuSans-2e" transform="translate(406.318359 0.78125)"/>
      <use xlink:href="#DejaVuSans-33" transform="translate(438.105469 0.78125)"/>
      <use xlink:href="#DejaVuSans-32" transform="translate(501.728516 0.78125)"/>
      <use xlink:href="#DejaVuSans-65" transform="translate(565.351562 0.78125)"/>
      <use xlink:href="#DejaVuSans-2d" transform="translate(626.875 0.78125)"/>
      <use xlink:href="#DejaVuSans-30" transform="translate(662.958984 0.78125)"/>
      <use xlink:href="#DejaVuSans-31" transform="translate(726.582031 0.78125)"/>
      <use xlink:href="#DejaVuSans-20" transform="translate(790.205078 0.78125)"/>
      <use xlink:href="#DejaVuSans-Oblique-52" transform="translate(821.992188 0.78125)"/>
      <use xlink:href="#DejaVuSans-Oblique-45" transform="translate(891.474609 -15.625) scale(0.7)"/>
      <use xlink:href="#DejaVuSans-Oblique-61" transform="translate(935.703125 -15.625) scale(0.7)"/>
      <use xlink:href="#DejaVuSans-Oblique-72" transform="translate(978.598633 -15.625) scale(0.7)"/>
      <use xlink:href="#DejaVuSans-Oblique-74" transform="translate(1007.37793 -15.625) scale(0.7)"/>
      <use xlink:href="#DejaVuSans-Oblique-68" transform="translate(1034.824219 -15.625) scale(0.7)"/>
     </g>
    </g>
   </g>
  </g>
  <g id="axes_2">
   <g id="patch_9">
    <path d="M 662.376474 417.320229 
L 1106.28096 417.320229 
L 1106.28096 45.770606 
L 662.376474 45.770606 
z
" style="fill: #ffffff"/>
   </g>
   <g id="matplotlib.axis_3">
    <g id="xtick_6">
     <g id="line2d_23">
      <path d="M 682.553951 417.320229 
L 682.553951 45.770606 
" clip-path="url(#p8baeb7384c)" style="fill: none; stroke: #b0b0b0; stroke-width: 0.8; stroke-linecap: square"/>
     </g>
     <g id="line2d_24">
      <g>
       <use xlink:href="#m1b2b2bb2b5" x="682.553951" y="417.320229" style="stroke: #000000; stroke-width: 0.8"/>
      </g>
     </g>
     <g id="text_19">
      <!-- 0.0 -->
      <g transform="translate(674.602388 431.918666) scale(0.1 -0.1)">
       <use xlink:href="#DejaVuSans-30"/>
       <use xlink:href="#DejaVuSans-2e" x="63.623047"/>
       <use xlink:href="#DejaVuSans-30" x="95.410156"/>
      </g>
     </g>
    </g>
    <g id="xtick_7">
     <g id="line2d_25">
      <path d="M 772.233463 417.320229 
L 772.233463 45.770606 
" clip-path="url(#p8baeb7384c)" style="fill: none; stroke: #b0b0b0; stroke-width: 0.8; stroke-linecap: square"/>
     </g>
     <g id="line2d_26">
      <g>
       <use xlink:href="#m1b2b2bb2b5" x="772.233463" y="417.320229" style="stroke: #000000; stroke-width: 0.8"/>
      </g>
     </g>
     <g id="text_20">
      <!-- 0.2 -->
      <g transform="translate(764.2819 431.918666) scale(0.1 -0.1)">
       <use xlink:href="#DejaVuSans-30"/>
       <use xlink:href="#DejaVuSans-2e" x="63.623047"/>
       <use xlink:href="#DejaVuSans-32" x="95.410156"/>
      </g>
     </g>
    </g>
    <g id="xtick_8">
     <g id="line2d_27">
      <path d="M 861.912975 417.320229 
L 861.912975 45.770606 
" clip-path="url(#p8baeb7384c)" style="fill: none; stroke: #b0b0b0; stroke-width: 0.8; stroke-linecap: square"/>
     </g>
     <g id="line2d_28">
      <g>
       <use xlink:href="#m1b2b2bb2b5" x="861.912975" y="417.320229" style="stroke: #000000; stroke-width: 0.8"/>
      </g>
     </g>
     <g id="text_21">
      <!-- 0.4 -->
      <g transform="translate(853.961412 431.918666) scale(0.1 -0.1)">
       <use xlink:href="#DejaVuSans-30"/>
       <use xlink:href="#DejaVuSans-2e" x="63.623047"/>
       <use xlink:href="#DejaVuSans-34" x="95.410156"/>
      </g>
     </g>
    </g>
    <g id="xtick_9">
     <g id="line2d_29">
      <path d="M 951.592487 417.320229 
L 951.592487 45.770606 
" clip-path="url(#p8baeb7384c)" style="fill: none; stroke: #b0b0b0; stroke-width: 0.8; stroke-linecap: square"/>
     </g>
     <g id="line2d_30">
      <g>
       <use xlink:href="#m1b2b2bb2b5" x="951.592487" y="417.320229" style="stroke: #000000; stroke-width: 0.8"/>
      </g>
     </g>
     <g id="text_22">
      <!-- 0.6 -->
      <g transform="translate(943.640925 431.918666) scale(0.1 -0.1)">
       <use xlink:href="#DejaVuSans-30"/>
       <use xlink:href="#DejaVuSans-2e" x="63.623047"/>
       <use xlink:href="#DejaVuSans-36" x="95.410156"/>
      </g>
     </g>
    </g>
    <g id="xtick_10">
     <g id="line2d_31">
      <path d="M 1041.271999 417.320229 
L 1041.271999 45.770606 
" clip-path="url(#p8baeb7384c)" style="fill: none; stroke: #b0b0b0; stroke-width: 0.8; stroke-linecap: square"/>
     </g>
     <g id="line2d_32">
      <g>
       <use xlink:href="#m1b2b2bb2b5" x="1041.271999" y="417.320229" style="stroke: #000000; stroke-width: 0.8"/>
      </g>
     </g>
     <g id="text_23">
      <!-- 0.8 -->
      <g transform="translate(1033.320437 431.918666) scale(0.1 -0.1)">
       <use xlink:href="#DejaVuSans-30"/>
       <use xlink:href="#DejaVuSans-2e" x="63.623047"/>
       <use xlink:href="#DejaVuSans-38" x="95.410156"/>
      </g>
     </g>
    </g>
    <g id="text_24">
     <!-- Säde, r ($R_{WD}$) -->
     <g transform="translate(851.328717 445.596791) scale(0.1 -0.1)">
      <use xlink:href="#DejaVuSans-53" transform="translate(0 0.015625)"/>
      <use xlink:href="#DejaVuSans-e4" transform="translate(63.476562 0.015625)"/>
      <use xlink:href="#DejaVuSans-64" transform="translate(124.755859 0.015625)"/>
      <use xlink:href="#DejaVuSans-65" transform="translate(188.232422 0.015625)"/>
      <use xlink:href="#DejaVuSans-2c" transform="translate(249.755859 0.015625)"/>
      <use xlink:href="#DejaVuSans-20" transform="translate(281.542969 0.015625)"/>
      <use xlink:href="#DejaVuSans-72" transform="translate(313.330078 0.015625)"/>
      <use xlink:href="#DejaVuSans-20" transform="translate(354.443359 0.015625)"/>
      <use xlink:href="#DejaVuSans-28" transform="translate(386.230469 0.015625)"/>
      <use xlink:href="#DejaVuSans-Oblique-52" transform="translate(425.244141 0.015625)"/>
      <use xlink:href="#DejaVuSans-Oblique-57" transform="translate(494.726562 -16.390625) scale(0.7)"/>
      <use xlink:href="#DejaVuSans-Oblique-44" transform="translate(563.94043 -16.390625) scale(0.7)"/>
      <use xlink:href="#DejaVuSans-29" transform="translate(620.576172 0.015625)"/>
     </g>
    </g>
   </g>
   <g id="matplotlib.axis_4">
    <g id="ytick_10">
     <g id="line2d_33">
      <path d="M 662.376474 400.431609 
L 1106.28096 400.431609 
" clip-path="url(#p8baeb7384c)" style="fill: none; stroke: #b0b0b0; stroke-width: 0.8; stroke-linecap: square"/>
     </g>
     <g id="line2d_34">
      <g>
       <use xlink:href="#m6a6cc1a76f" x="662.376474" y="400.431609" style="stroke: #000000; stroke-width: 0.8"/>
      </g>
     </g>
     <g id="text_25">
      <!-- $\mathdefault{10^{0}}$ -->
      <g transform="translate(637.776474 404.230828) scale(0.1 -0.1)">
       <use xlink:href="#DejaVuSans-31" transform="translate(0 0.765625)"/>
       <use xlink:href="#DejaVuSans-30" transform="translate(63.623047 0.765625)"/>
       <use xlink:href="#DejaVuSans-30" transform="translate(128.203125 39.046875) scale(0.7)"/>
      </g>
     </g>
    </g>
    <g id="ytick_11">
     <g id="line2d_35">
      <g>
       <use xlink:href="#m3db9118703" x="662.376474" y="332.452353" style="stroke: #000000; stroke-width: 0.6"/>
      </g>
     </g>
     <g id="text_26">
      <!-- $\mathdefault{1.0005\times10^{0}}$ -->
      <g transform="translate(592.076474 336.251572) scale(0.1 -0.1)">
       <use xlink:href="#DejaVuSans-31" transform="translate(0 0.765625)"/>
       <use xlink:href="#DejaVuSans-2e" transform="translate(63.623047 0.765625)"/>
       <use xlink:href="#DejaVuSans-30" transform="translate(95.410156 0.765625)"/>
       <use xlink:href="#DejaVuSans-30" transform="translate(159.033203 0.765625)"/>
       <use xlink:href="#DejaVuSans-30" transform="translate(222.65625 0.765625)"/>
       <use xlink:href="#DejaVuSans-35" transform="translate(286.279297 0.765625)"/>
       <use xlink:href="#DejaVuSans-d7" transform="translate(369.384766 0.765625)"/>
       <use xlink:href="#DejaVuSans-31" transform="translate(472.65625 0.765625)"/>
       <use xlink:href="#DejaVuSans-30" transform="translate(536.279297 0.765625)"/>
       <use xlink:href="#DejaVuSans-30" transform="translate(600.859375 39.046875) scale(0.7)"/>
      </g>
     </g>
    </g>
    <g id="ytick_12">
     <g id="line2d_36">
      <g>
       <use xlink:href="#m3db9118703" x="662.376474" y="264.507061" style="stroke: #000000; stroke-width: 0.6"/>
      </g>
     </g>
     <g id="text_27">
      <!-- $\mathdefault{1.001\times10^{0}}$ -->
      <g transform="translate(598.476474 268.306279) scale(0.1 -0.1)">
       <use xlink:href="#DejaVuSans-31" transform="translate(0 0.765625)"/>
       <use xlink:href="#DejaVuSans-2e" transform="translate(63.623047 0.765625)"/>
       <use xlink:href="#DejaVuSans-30" transform="translate(95.410156 0.765625)"/>
       <use xlink:href="#DejaVuSans-30" transform="translate(159.033203 0.765625)"/>
       <use xlink:href="#DejaVuSans-31" transform="translate(222.65625 0.765625)"/>
       <use xlink:href="#DejaVuSans-d7" transform="translate(305.761719 0.765625)"/>
       <use xlink:href="#DejaVuSans-31" transform="translate(409.033203 0.765625)"/>
       <use xlink:href="#DejaVuSans-30" transform="translate(472.65625 0.765625)"/>
       <use xlink:href="#DejaVuSans-30" transform="translate(537.236328 39.046875) scale(0.7)"/>
      </g>
     </g>
    </g>
    <g id="ytick_13">
     <g id="line2d_37">
      <g>
       <use xlink:href="#m3db9118703" x="662.376474" y="196.595699" style="stroke: #000000; stroke-width: 0.6"/>
      </g>
     </g>
     <g id="text_28">
      <!-- $\mathdefault{1.0015\times10^{0}}$ -->
      <g transform="translate(592.076474 200.394917) scale(0.1 -0.1)">
       <use xlink:href="#DejaVuSans-31" transform="translate(0 0.765625)"/>
       <use xlink:href="#DejaVuSans-2e" transform="translate(63.623047 0.765625)"/>
       <use xlink:href="#DejaVuSans-30" transform="translate(95.410156 0.765625)"/>
       <use xlink:href="#DejaVuSans-30" transform="translate(159.033203 0.765625)"/>
       <use xlink:href="#DejaVuSans-31" transform="translate(222.65625 0.765625)"/>
       <use xlink:href="#DejaVuSans-35" transform="translate(286.279297 0.765625)"/>
       <use xlink:href="#DejaVuSans-d7" transform="translate(369.384766 0.765625)"/>
       <use xlink:href="#DejaVuSans-31" transform="translate(472.65625 0.765625)"/>
       <use xlink:href="#DejaVuSans-30" transform="translate(536.279297 0.765625)"/>
       <use xlink:href="#DejaVuSans-30" transform="translate(600.859375 39.046875) scale(0.7)"/>
      </g>
     </g>
    </g>
    <g id="ytick_14">
     <g id="line2d_38">
      <g>
       <use xlink:href="#m3db9118703" x="662.376474" y="128.718233" style="stroke: #000000; stroke-width: 0.6"/>
      </g>
     </g>
     <g id="text_29">
      <!-- $\mathdefault{1.002\times10^{0}}$ -->
      <g transform="translate(598.476474 132.517452) scale(0.1 -0.1)">
       <use xlink:href="#DejaVuSans-31" transform="translate(0 0.765625)"/>
       <use xlink:href="#DejaVuSans-2e" transform="translate(63.623047 0.765625)"/>
       <use xlink:href="#DejaVuSans-30" transform="translate(95.410156 0.765625)"/>
       <use xlink:href="#DejaVuSans-30" transform="translate(159.033203 0.765625)"/>
       <use xlink:href="#DejaVuSans-32" transform="translate(222.65625 0.765625)"/>
       <use xlink:href="#DejaVuSans-d7" transform="translate(305.761719 0.765625)"/>
       <use xlink:href="#DejaVuSans-31" transform="translate(409.033203 0.765625)"/>
       <use xlink:href="#DejaVuSans-30" transform="translate(472.65625 0.765625)"/>
       <use xlink:href="#DejaVuSans-30" transform="translate(537.236328 39.046875) scale(0.7)"/>
      </g>
     </g>
    </g>
    <g id="ytick_15">
     <g id="line2d_39">
      <g>
       <use xlink:href="#m3db9118703" x="662.376474" y="60.87463" style="stroke: #000000; stroke-width: 0.6"/>
      </g>
     </g>
     <g id="text_30">
      <!-- $\mathdefault{1.0025\times10^{0}}$ -->
      <g transform="translate(592.076474 64.673849) scale(0.1 -0.1)">
       <use xlink:href="#DejaVuSans-31" transform="translate(0 0.765625)"/>
       <use xlink:href="#DejaVuSans-2e" transform="translate(63.623047 0.765625)"/>
       <use xlink:href="#DejaVuSans-30" transform="translate(95.410156 0.765625)"/>
       <use xlink:href="#DejaVuSans-30" transform="translate(159.033203 0.765625)"/>
       <use xlink:href="#DejaVuSans-32" transform="translate(222.65625 0.765625)"/>
       <use xlink:href="#DejaVuSans-35" transform="translate(286.279297 0.765625)"/>
       <use xlink:href="#DejaVuSans-d7" transform="translate(369.384766 0.765625)"/>
       <use xlink:href="#DejaVuSans-31" transform="translate(472.65625 0.765625)"/>
       <use xlink:href="#DejaVuSans-30" transform="translate(536.279297 0.765625)"/>
       <use xlink:href="#DejaVuSans-30" transform="translate(600.859375 39.046875) scale(0.7)"/>
      </g>
     </g>
    </g>
    <g id="text_31">
     <!-- $\frac{\rho_{newt}}{\rho_{tov}}$ -->
     <g transform="translate(583.876474 240.545417) rotate(-90) scale(0.1 -0.1)">
      <use xlink:href="#DejaVuSans-Oblique-3c1" transform="translate(0 58.8) scale(0.7)"/>
      <use xlink:href="#DejaVuSans-Oblique-6e" transform="translate(44.433594 47.315625) scale(0.49)"/>
      <use xlink:href="#DejaVuSans-Oblique-65" transform="translate(75.489258 47.315625) scale(0.49)"/>
      <use xlink:href="#DejaVuSans-Oblique-77" transform="translate(105.635742 47.315625) scale(0.49)"/>
      <use xlink:href="#DejaVuSans-Oblique-74" transform="translate(145.711426 47.315625) scale(0.49)"/>
      <use xlink:href="#DejaVuSans-Oblique-3c1" transform="translate(21 -26.207812) scale(0.7)"/>
      <use xlink:href="#DejaVuSans-Oblique-74" transform="translate(65.433594 -37.692187) scale(0.49)"/>
      <use xlink:href="#DejaVuSans-Oblique-6f" transform="translate(84.645996 -37.692187) scale(0.49)"/>
      <use xlink:href="#DejaVuSans-Oblique-76" transform="translate(114.625 -37.692187) scale(0.49)"/>
      <path d="M 0 19.242188 
L 0 25.492188 
L 166.837891 25.492188 
L 166.837891 19.242188 
L 0 19.242188 
z
"/>
     </g>
    </g>
   </g>
   <g id="line2d_40">
    <path d="M 1086.103483 400.431609 
L 1074.274202 400.320592 
L 1063.081716 399.987749 
L 1051.964782 399.435153 
L 1040.944986 398.665274 
L 1030.043914 397.681348 
L 1019.272361 396.4865 
L 1008.619532 395.081491 
L 998.09622 393.469812 
L 987.68084 391.650278 
L 977.351805 389.620305 
L 967.109115 387.38094 
L 956.931184 384.928342 
L 946.807219 382.260157 
L 936.726426 379.37336 
L 926.688806 376.267486 
L 916.705152 372.945592 
L 906.786256 369.411222 
L 896.942912 365.668046 
L 887.2075 361.728469 
L 877.601606 357.601803 
L 868.179194 353.31238 
L 858.983439 348.882757 
L 850.046719 344.332358 
L 841.401414 339.682275 
L 833.06911 334.949484 
L 825.071393 330.152478 
L 817.419057 325.304981 
L 810.112101 320.414848 
L 803.139733 315.482706 
L 796.491159 310.508527 
L 790.155586 305.491877 
L 784.12222 300.432122 
L 778.369477 295.318717 
L 772.875768 290.138808 
L 767.630302 284.888009 
L 762.611492 279.549771 
L 757.808545 274.116755 
L 753.210667 268.580836 
L 748.796273 262.918651 
L 744.554569 257.117123 
L 740.463969 251.145016 
L 736.524473 244.999152 
L 732.725288 238.65929 
L 729.05562 232.10183 
L 725.504677 225.299112 
L 722.072459 218.241547 
L 718.748172 210.89577 
L 715.521023 203.222146 
L 712.391012 195.202106 
L 709.35814 186.816901 
L 706.411613 178.014292 
L 703.540637 168.73126 
L 700.756007 158.970274 
L 698.046929 148.659017 
L 695.413403 137.755891 
L 692.844636 126.165497 
L 690.35142 113.881685 
L 687.922964 100.791265 
L 685.559266 86.820785 
L 683.260327 71.889099 
L 682.553988 66.353593 
L 682.553951 62.659225 
L 682.553951 62.659225 
" clip-path="url(#p8baeb7384c)" style="fill: none; stroke: #ff0000; stroke-width: 1.5; stroke-linecap: square"/>
   </g>
   <g id="patch_10">
    <path d="M 662.376474 417.320229 
L 662.376474 45.770606 
" style="fill: none; stroke: #000000; stroke-width: 0.8; stroke-linejoin: miter; stroke-linecap: square"/>
   </g>
   <g id="patch_11">
    <path d="M 1106.28096 417.320229 
L 1106.28096 45.770606 
" style="fill: none; stroke: #000000; stroke-width: 0.8; stroke-linejoin: miter; stroke-linecap: square"/>
   </g>
   <g id="patch_12">
    <path d="M 662.376474 417.320229 
L 1106.28096 417.320229 
" style="fill: none; stroke: #000000; stroke-width: 0.8; stroke-linejoin: miter; stroke-linecap: square"/>
   </g>
   <g id="patch_13">
    <path d="M 662.376474 45.770606 
L 1106.28096 45.770606 
" style="fill: none; stroke: #000000; stroke-width: 0.8; stroke-linejoin: miter; stroke-linecap: square"/>
   </g>
   <g id="text_32">
    <!-- f) -->
    <g transform="translate(662.376474 39.770606) scale(0.12 -0.12)">
     <defs>
      <path id="DejaVuSans-66" d="M 2375 4863 
L 2375 4384 
L 1825 4384 
Q 1516 4384 1395 4259 
Q 1275 4134 1275 3809 
L 1275 3500 
L 2222 3500 
L 2222 3053 
L 1275 3053 
L 1275 0 
L 697 0 
L 697 3053 
L 147 3053 
L 147 3500 
L 697 3500 
L 697 3744 
Q 697 4328 969 4595 
Q 1241 4863 1831 4863 
L 2375 4863 
z
" transform="scale(0.015625)"/>
     </defs>
     <use xlink:href="#DejaVuSans-66"/>
     <use xlink:href="#DejaVuSans-29" x="35.205078"/>
    </g>
   </g>
   <g id="legend_2">
    <g id="patch_14">
     <path d="M 809.15596 99.826543 
L 1101.28096 99.826543 
Q 1103.28096 99.826543 1103.28096 97.826543 
L 1103.28096 54.770606 
Q 1103.28096 52.770606 1101.28096 52.770606 
L 809.15596 52.770606 
Q 807.15596 52.770606 807.15596 54.770606 
L 807.15596 97.826543 
Q 807.15596 99.826543 809.15596 99.826543 
z
" style="fill: #4c4c4c; opacity: 0.5; stroke: #4c4c4c; stroke-linejoin: miter"/>
    </g>
    <g id="patch_15">
     <path d="M 807.15596 97.826543 
L 1099.28096 97.826543 
Q 1101.28096 97.826543 1101.28096 95.826543 
L 1101.28096 52.770606 
Q 1101.28096 50.770606 1099.28096 50.770606 
L 807.15596 50.770606 
Q 805.15596 50.770606 805.15596 52.770606 
L 805.15596 95.826543 
Q 805.15596 97.826543 807.15596 97.826543 
z
" style="fill: #ffffff; stroke: #cccccc; stroke-linejoin: miter"/>
    </g>
    <g id="line2d_41">
     <path d="M 809.15596 74.597793 
L 819.15596 74.597793 
L 829.15596 74.597793 
" style="fill: none; stroke: #ff0000; stroke-width: 1.5; stroke-linecap: square"/>
    </g>
    <g id="text_33">
     <!-- Teorioiden välinen suhde keskipisteen parametreilla -->
     <g transform="translate(837.15596 62.369043) scale(0.1 -0.1)">
      <use xlink:href="#DejaVuSans-54"/>
      <use xlink:href="#DejaVuSans-65" x="44.083984"/>
      <use xlink:href="#DejaVuSans-6f" x="105.607422"/>
      <use xlink:href="#DejaVuSans-72" x="166.789062"/>
      <use xlink:href="#DejaVuSans-69" x="207.902344"/>
      <use xlink:href="#DejaVuSans-6f" x="235.685547"/>
      <use xlink:href="#DejaVuSans-69" x="296.867188"/>
      <use xlink:href="#DejaVuSans-64" x="324.650391"/>
      <use xlink:href="#DejaVuSans-65" x="388.126953"/>
      <use xlink:href="#DejaVuSans-6e" x="449.650391"/>
      <use xlink:href="#DejaVuSans-20" x="513.029297"/>
      <use xlink:href="#DejaVuSans-76" x="544.816406"/>
      <use xlink:href="#DejaVuSans-e4" x="603.996094"/>
      <use xlink:href="#DejaVuSans-6c" x="665.275391"/>
      <use xlink:href="#DejaVuSans-69" x="693.058594"/>
      <use xlink:href="#DejaVuSans-6e" x="720.841797"/>
      <use xlink:href="#DejaVuSans-65" x="784.220703"/>
      <use xlink:href="#DejaVuSans-6e" x="845.744141"/>
      <use xlink:href="#DejaVuSans-20" x="909.123047"/>
      <use xlink:href="#DejaVuSans-73" x="940.910156"/>
      <use xlink:href="#DejaVuSans-75" x="993.009766"/>
      <use xlink:href="#DejaVuSans-68" x="1056.388672"/>
      <use xlink:href="#DejaVuSans-64" x="1119.767578"/>
      <use xlink:href="#DejaVuSans-65" x="1183.244141"/>
      <use xlink:href="#DejaVuSans-20" x="1244.767578"/>
      <use xlink:href="#DejaVuSans-6b" x="1276.554688"/>
      <use xlink:href="#DejaVuSans-65" x="1330.839844"/>
      <use xlink:href="#DejaVuSans-73" x="1392.363281"/>
      <use xlink:href="#DejaVuSans-6b" x="1444.462891"/>
      <use xlink:href="#DejaVuSans-69" x="1502.373047"/>
      <use xlink:href="#DejaVuSans-70" x="1530.15625"/>
      <use xlink:href="#DejaVuSans-69" x="1593.632812"/>
      <use xlink:href="#DejaVuSans-73" x="1621.416016"/>
      <use xlink:href="#DejaVuSans-74" x="1673.515625"/>
      <use xlink:href="#DejaVuSans-65" x="1712.724609"/>
      <use xlink:href="#DejaVuSans-65" x="1774.248047"/>
      <use xlink:href="#DejaVuSans-6e" x="1835.771484"/>
      <use xlink:href="#DejaVuSans-20" x="1899.150391"/>
      <use xlink:href="#DejaVuSans-70" x="1930.9375"/>
      <use xlink:href="#DejaVuSans-61" x="1994.414062"/>
      <use xlink:href="#DejaVuSans-72" x="2055.693359"/>
      <use xlink:href="#DejaVuSans-61" x="2096.806641"/>
      <use xlink:href="#DejaVuSans-6d" x="2158.085938"/>
      <use xlink:href="#DejaVuSans-65" x="2255.498047"/>
      <use xlink:href="#DejaVuSans-74" x="2317.021484"/>
      <use xlink:href="#DejaVuSans-72" x="2356.230469"/>
      <use xlink:href="#DejaVuSans-65" x="2395.09375"/>
      <use xlink:href="#DejaVuSans-69" x="2456.617188"/>
      <use xlink:href="#DejaVuSans-6c" x="2484.400391"/>
      <use xlink:href="#DejaVuSans-6c" x="2512.183594"/>
      <use xlink:href="#DejaVuSans-61" x="2539.966797"/>
     </g>
     <!-- $\rho_c$ = 4.17e+26 $\frac{\mathrm{J}}{\mathrm{m}^{3}}$ -->
     <g transform="translate(837.15596 77.528731) scale(0.1 -0.1)">
      <use xlink:href="#DejaVuSans-Oblique-3c1" transform="translate(0 0.157813)"/>
      <use xlink:href="#DejaVuSans-Oblique-63" transform="translate(63.476562 -16.248437) scale(0.7)"/>
      <use xlink:href="#DejaVuSans-20" transform="translate(104.697266 0.157813)"/>
      <use xlink:href="#DejaVuSans-3d" transform="translate(136.484375 0.157813)"/>
      <use xlink:href="#DejaVuSans-20" transform="translate(220.273438 0.157813)"/>
      <use xlink:href="#DejaVuSans-34" transform="translate(252.060547 0.157813)"/>
      <use xlink:href="#DejaVuSans-2e" transform="translate(315.683594 0.157813)"/>
      <use xlink:href="#DejaVuSans-31" transform="translate(347.470703 0.157813)"/>
      <use xlink:href="#DejaVuSans-37" transform="translate(411.09375 0.157813)"/>
      <use xlink:href="#DejaVuSans-65" transform="translate(474.716797 0.157813)"/>
      <use xlink:href="#DejaVuSans-2b" transform="translate(536.240234 0.157813)"/>
      <use xlink:href="#DejaVuSans-32" transform="translate(620.029297 0.157813)"/>
      <use xlink:href="#DejaVuSans-36" transform="translate(683.652344 0.157813)"/>
      <use xlink:href="#DejaVuSans-20" transform="translate(747.275391 0.157813)"/>
      <use xlink:href="#DejaVuSans-4a" transform="translate(820.0625 57.965625) scale(0.7)"/>
      <use xlink:href="#DejaVuSans-6d" transform="translate(779.0625 -50.459375) scale(0.7)"/>
      <use xlink:href="#DejaVuSans-33" transform="translate(847.920898 -23.6625) scale(0.49)"/>
      <path d="M 779.0625 18.954688 
L 779.0625 25.204688 
L 881.010254 25.204688 
L 881.010254 18.954688 
L 779.0625 18.954688 
z
"/>
     </g>
     <!-- $R_{WD}$ = 1.29e+00 $R_{Earth}$ -->
     <g transform="translate(837.15596 91.746856) scale(0.1 -0.1)">
      <defs>
       <path id="DejaVuSans-39" d="M 703 97 
L 703 672 
Q 941 559 1184 500 
Q 1428 441 1663 441 
Q 2288 441 2617 861 
Q 2947 1281 2994 2138 
Q 2813 1869 2534 1725 
Q 2256 1581 1919 1581 
Q 1219 1581 811 2004 
Q 403 2428 403 3163 
Q 403 3881 828 4315 
Q 1253 4750 1959 4750 
Q 2769 4750 3195 4129 
Q 3622 3509 3622 2328 
Q 3622 1225 3098 567 
Q 2575 -91 1691 -91 
Q 1453 -91 1209 -44 
Q 966 3 703 97 
z
M 1959 2075 
Q 2384 2075 2632 2365 
Q 2881 2656 2881 3163 
Q 2881 3666 2632 3958 
Q 2384 4250 1959 4250 
Q 1534 4250 1286 3958 
Q 1038 3666 1038 3163 
Q 1038 2656 1286 2365 
Q 1534 2075 1959 2075 
z
" transform="scale(0.015625)"/>
      </defs>
      <use xlink:href="#DejaVuSans-Oblique-52" transform="translate(0 0.78125)"/>
      <use xlink:href="#DejaVuSans-Oblique-57" transform="translate(69.482422 -15.625) scale(0.7)"/>
      <use xlink:href="#DejaVuSans-Oblique-44" transform="translate(138.696289 -15.625) scale(0.7)"/>
      <use xlink:href="#DejaVuSans-20" transform="translate(195.332031 0.78125)"/>
      <use xlink:href="#DejaVuSans-3d" transform="translate(227.119141 0.78125)"/>
      <use xlink:href="#DejaVuSans-20" transform="translate(310.908203 0.78125)"/>
      <use xlink:href="#DejaVuSans-31" transform="translate(342.695312 0.78125)"/>
      <use xlink:href="#DejaVuSans-2e" transform="translate(406.318359 0.78125)"/>
      <use xlink:href="#DejaVuSans-32" transform="translate(432.605469 0.78125)"/>
      <use xlink:href="#DejaVuSans-39" transform="translate(494.478516 0.78125)"/>
      <use xlink:href="#DejaVuSans-65" transform="translate(558.101562 0.78125)"/>
      <use xlink:href="#DejaVuSans-2b" transform="translate(619.625 0.78125)"/>
      <use xlink:href="#DejaVuSans-30" transform="translate(703.414062 0.78125)"/>
      <use xlink:href="#DejaVuSans-30" transform="translate(767.037109 0.78125)"/>
      <use xlink:href="#DejaVuSans-20" transform="translate(830.660156 0.78125)"/>
      <use xlink:href="#DejaVuSans-Oblique-52" transform="translate(862.447266 0.78125)"/>
      <use xlink:href="#DejaVuSans-Oblique-45" transform="translate(931.929688 -15.625) scale(0.7)"/>
      <use xlink:href="#DejaVuSans-Oblique-61" transform="translate(976.158203 -15.625) scale(0.7)"/>
      <use xlink:href="#DejaVuSans-Oblique-72" transform="translate(1019.053711 -15.625) scale(0.7)"/>
      <use xlink:href="#DejaVuSans-Oblique-74" transform="translate(1047.833008 -15.625) scale(0.7)"/>
      <use xlink:href="#DejaVuSans-Oblique-68" transform="translate(1075.279297 -15.625) scale(0.7)"/>
     </g>
    </g>
   </g>
  </g>
 </g>
 <defs>
  <clipPath id="paac7f7569c">
   <rect x="104.32512" y="45.770606" width="443.904486" height="371.549623"/>
  </clipPath>
  <clipPath id="p8baeb7384c">
   <rect x="662.376474" y="45.770606" width="443.904486" height="371.549623"/>
  </clipPath>
 </defs>
</svg>
